<svg id="visual" viewBox="0 0 1920 1080" width="1920" height="1080" xmlns="http://www.w3.org/2000/svg" xmlns:xlink="http://www.w3.org/1999/xlink" version="1.1"><g stroke-width="1" stroke-linejoin="bevel"><path d="M1034.7 549L869.3 394L851.3 500Z" fill="#235aa3" stroke="#235aa3"></path><path d="M1034.7 549L1060.7 346L869.3 394Z" fill="#1c4289" stroke="#1c4289"></path><path d="M1034.7 549L1247 503L1060.7 346Z" fill="#1f4e96" stroke="#1f4e96"></path><path d="M838.3 750L1072.7 742L1034.7 549Z" fill="#2b74be" stroke="#2b74be"></path><path d="M1034.7 549L1072.7 742L1247 503Z" fill="#348ed8" stroke="#348ed8"></path><path d="M869.3 394L656 516L851.3 500Z" fill="#18367b" stroke="#18367b"></path><path d="M851.3 500L838.3 750L1034.7 549Z" fill="#2667b1" stroke="#2667b1"></path><path d="M650 711L838.3 750L851.3 500Z" fill="#1c4289" stroke="#1c4289"></path><path d="M1246 162L1076.7 159L1060.7 346Z" fill="#2667b1" stroke="#2667b1"></path><path d="M1060.7 346L813.3 145L869.3 394Z" fill="#152b6e" stroke="#152b6e"></path><path d="M869.3 394L621 326L656 516Z" fill="#2667b1" stroke="#2667b1"></path><path d="M1076.7 159L813.3 145L1060.7 346Z" fill="#235aa3" stroke="#235aa3"></path><path d="M1247 503L1304 362L1060.7 346Z" fill="#1f4e96" stroke="#1f4e96"></path><path d="M670 219L621 326L869.3 394Z" fill="#1f4e96" stroke="#1f4e96"></path><path d="M813.3 145L670 219L869.3 394Z" fill="#1c4289" stroke="#1c4289"></path><path d="M400.7 684L650 711L656 516Z" fill="#2667b1" stroke="#2667b1"></path><path d="M656 516L650 711L851.3 500Z" fill="#0d1454" stroke="#0d1454"></path><path d="M1304 362L1246 162L1060.7 346Z" fill="#1f4e96" stroke="#1f4e96"></path><path d="M1076.7 159L815.3 0L813.3 145Z" fill="#2667b1" stroke="#2667b1"></path><path d="M1092.7 907L1279 743L1072.7 742Z" fill="#18367b" stroke="#18367b"></path><path d="M1072.7 742L1279 743L1247 503Z" fill="#1f4e96" stroke="#1f4e96"></path><path d="M1247 503L1522.3 504L1304 362Z" fill="#1f4e96" stroke="#1f4e96"></path><path d="M654 927L859.3 888L838.3 750Z" fill="#111f61" stroke="#111f61"></path><path d="M838.3 750L859.3 888L1072.7 742Z" fill="#1c4289" stroke="#1c4289"></path><path d="M859.3 888L1092.7 907L1072.7 742Z" fill="#18367b" stroke="#18367b"></path><path d="M1246 162L1098.7 0L1076.7 159Z" fill="#2f81cb" stroke="#2f81cb"></path><path d="M1098.7 0L815.3 0L1076.7 159Z" fill="#235aa3" stroke="#235aa3"></path><path d="M813.3 145L659 0L670 219Z" fill="#1f4e96" stroke="#1f4e96"></path><path d="M1092.7 907L1272 895L1279 743Z" fill="#235aa3" stroke="#235aa3"></path><path d="M1523.3 691L1522.3 504L1247 503Z" fill="#348ed8" stroke="#348ed8"></path><path d="M815.3 0L659 0L813.3 145Z" fill="#1f4e96" stroke="#1f4e96"></path><path d="M414.7 157L403.7 337L621 326Z" fill="#235aa3" stroke="#235aa3"></path><path d="M650 711L654 927L838.3 750Z" fill="#152b6e" stroke="#152b6e"></path><path d="M859.3 888L1098.7 1080L1092.7 907Z" fill="#1f4e96" stroke="#1f4e96"></path><path d="M426.7 880L654 927L650 711Z" fill="#1c4289" stroke="#1c4289"></path><path d="M1484.3 0L1278 0L1246 162Z" fill="#1f4e96" stroke="#1f4e96"></path><path d="M1246 162L1278 0L1098.7 0Z" fill="#1c4289" stroke="#1c4289"></path><path d="M1523.3 691L1247 503L1279 743Z" fill="#235aa3" stroke="#235aa3"></path><path d="M1304 362L1496.3 204L1246 162Z" fill="#0d1454" stroke="#0d1454"></path><path d="M403.7 337L397.7 526L621 326Z" fill="#1f4e96" stroke="#1f4e96"></path><path d="M621 326L397.7 526L656 516Z" fill="#2667b1" stroke="#2667b1"></path><path d="M414.7 157L621 326L670 219Z" fill="#1f4e96" stroke="#1f4e96"></path><path d="M1522.3 504L1526.3 383L1304 362Z" fill="#1c4289" stroke="#1c4289"></path><path d="M1526.3 383L1496.3 204L1304 362Z" fill="#348ed8" stroke="#348ed8"></path><path d="M397.7 526L400.7 684L656 516Z" fill="#2f81cb" stroke="#2f81cb"></path><path d="M1464.3 900L1523.3 691L1279 743Z" fill="#152b6e" stroke="#152b6e"></path><path d="M1522.3 504L1667.7 365L1526.3 383Z" fill="#18367b" stroke="#18367b"></path><path d="M659 0L414.7 157L670 219Z" fill="#2f81cb" stroke="#2f81cb"></path><path d="M654 927L835.3 1080L859.3 888Z" fill="#18367b" stroke="#18367b"></path><path d="M1092.7 907L1264 1080L1272 895Z" fill="#1f4e96" stroke="#1f4e96"></path><path d="M835.3 1080L1098.7 1080L859.3 888Z" fill="#1c4289" stroke="#1c4289"></path><path d="M1272 895L1464.3 900L1279 743Z" fill="#348ed8" stroke="#348ed8"></path><path d="M1459.3 1080L1464.3 900L1272 895Z" fill="#235aa3" stroke="#235aa3"></path><path d="M400.7 684L426.7 880L650 711Z" fill="#111f61" stroke="#111f61"></path><path d="M654 927L646 1080L835.3 1080Z" fill="#0d1454" stroke="#0d1454"></path><path d="M1098.7 1080L1264 1080L1092.7 907Z" fill="#2b74be" stroke="#2b74be"></path><path d="M403.7 1080L646 1080L654 927Z" fill="#1f4e96" stroke="#1f4e96"></path><path d="M1686.7 174L1484.3 0L1496.3 204Z" fill="#18367b" stroke="#18367b"></path><path d="M1496.3 204L1484.3 0L1246 162Z" fill="#0d1454" stroke="#0d1454"></path><path d="M1718.7 570L1667.7 365L1522.3 504Z" fill="#235aa3" stroke="#235aa3"></path><path d="M1526.3 383L1667.7 365L1496.3 204Z" fill="#18367b" stroke="#18367b"></path><path d="M1718.7 570L1522.3 504L1523.3 691Z" fill="#0d1454" stroke="#0d1454"></path><path d="M659 0L402.7 0L414.7 157Z" fill="#1c4289" stroke="#1c4289"></path><path d="M414.7 157L237.3 327L403.7 337Z" fill="#2b74be" stroke="#2b74be"></path><path d="M403.7 337L237.3 327L397.7 526Z" fill="#348ed8" stroke="#348ed8"></path><path d="M177.3 151L237.3 327L414.7 157Z" fill="#348ed8" stroke="#348ed8"></path><path d="M397.7 526L192.3 530L400.7 684Z" fill="#348ed8" stroke="#348ed8"></path><path d="M400.7 684L208.3 736L426.7 880Z" fill="#152b6e" stroke="#152b6e"></path><path d="M1709.7 684L1718.7 570L1523.3 691Z" fill="#348ed8" stroke="#348ed8"></path><path d="M237.3 327L192.3 530L397.7 526Z" fill="#1f4e96" stroke="#1f4e96"></path><path d="M1727.7 900L1523.3 691L1464.3 900Z" fill="#2b74be" stroke="#2b74be"></path><path d="M1727.7 900L1709.7 684L1523.3 691Z" fill="#0d1454" stroke="#0d1454"></path><path d="M1667.7 365L1686.7 174L1496.3 204Z" fill="#1c4289" stroke="#1c4289"></path><path d="M1920 341L1686.7 174L1667.7 365Z" fill="#1c4289" stroke="#1c4289"></path><path d="M1264 1080L1459.3 1080L1272 895Z" fill="#152b6e" stroke="#152b6e"></path><path d="M192.3 530L208.3 736L400.7 684Z" fill="#348ed8" stroke="#348ed8"></path><path d="M426.7 880L403.7 1080L654 927Z" fill="#18367b" stroke="#18367b"></path><path d="M191.3 870L403.7 1080L426.7 880Z" fill="#235aa3" stroke="#235aa3"></path><path d="M219.3 0L177.3 151L414.7 157Z" fill="#1f4e96" stroke="#1f4e96"></path><path d="M0 330L0 525L192.3 530Z" fill="#18367b" stroke="#18367b"></path><path d="M0 740L191.3 870L208.3 736Z" fill="#1c4289" stroke="#1c4289"></path><path d="M208.3 736L191.3 870L426.7 880Z" fill="#111f61" stroke="#111f61"></path><path d="M0 740L208.3 736L192.3 530Z" fill="#235aa3" stroke="#235aa3"></path><path d="M402.7 0L219.3 0L414.7 157Z" fill="#2b74be" stroke="#2b74be"></path><path d="M1683.7 1080L1727.7 900L1464.3 900Z" fill="#18367b" stroke="#18367b"></path><path d="M1920 682L1920 567L1718.7 570Z" fill="#2f81cb" stroke="#2f81cb"></path><path d="M1920 200L1716.7 0L1686.7 174Z" fill="#152b6e" stroke="#152b6e"></path><path d="M1686.7 174L1716.7 0L1484.3 0Z" fill="#235aa3" stroke="#235aa3"></path><path d="M1920 341L1667.7 365L1718.7 570Z" fill="#348ed8" stroke="#348ed8"></path><path d="M1459.3 1080L1683.7 1080L1464.3 900Z" fill="#111f61" stroke="#111f61"></path><path d="M0 330L192.3 530L237.3 327Z" fill="#2667b1" stroke="#2667b1"></path><path d="M0 330L237.3 327L177.3 151Z" fill="#1f4e96" stroke="#1f4e96"></path><path d="M1920 682L1709.7 684L1727.7 900Z" fill="#152b6e" stroke="#152b6e"></path><path d="M1920 682L1718.7 570L1709.7 684Z" fill="#235aa3" stroke="#235aa3"></path><path d="M0 158L0 330L177.3 151Z" fill="#348ed8" stroke="#348ed8"></path><path d="M1920 567L1920 341L1718.7 570Z" fill="#152b6e" stroke="#152b6e"></path><path d="M191.3 870L201.3 1080L403.7 1080Z" fill="#348ed8" stroke="#348ed8"></path><path d="M0 935L201.3 1080L191.3 870Z" fill="#0d1454" stroke="#0d1454"></path><path d="M1920 936L1920 682L1727.7 900Z" fill="#2f81cb" stroke="#2f81cb"></path><path d="M1920 341L1920 200L1686.7 174Z" fill="#2f81cb" stroke="#2f81cb"></path><path d="M0 525L0 740L192.3 530Z" fill="#2667b1" stroke="#2667b1"></path><path d="M0 0L0 158L177.3 151Z" fill="#1c4289" stroke="#1c4289"></path><path d="M219.3 0L0 0L177.3 151Z" fill="#0d1454" stroke="#0d1454"></path><path d="M1920 200L1920 0L1716.7 0Z" fill="#1c4289" stroke="#1c4289"></path><path d="M0 740L0 935L191.3 870Z" fill="#348ed8" stroke="#348ed8"></path><path d="M1920 1080L1920 936L1727.7 900Z" fill="#152b6e" stroke="#152b6e"></path><path d="M0 935L0 1080L201.3 1080Z" fill="#152b6e" stroke="#152b6e"></path><path d="M1683.7 1080L1920 1080L1727.7 900Z" fill="#2f81cb" stroke="#2f81cb"></path></g></svg>