<svg id="visual" viewBox="0 0 1920 1080" width="1920" height="1080" xmlns="http://www.w3.org/2000/svg" xmlns:xlink="http://www.w3.org/1999/xlink" version="1.1"><rect x="0" y="0" width="1920" height="1080" fill="#ffffff"></rect><path d="M0 698L45.7 702.3C91.3 706.7 182.7 715.3 274.2 732.8C365.7 750.3 457.3 776.7 548.8 779C640.3 781.3 731.7 759.7 823 747.7C914.3 735.7 1005.7 733.3 1097 715.7C1188.3 698 1279.7 665 1371.2 676.2C1462.7 687.3 1554.3 742.7 1645.8 752C1737.3 761.3 1828.7 724.7 1874.3 706.3L1920 688L1920 1081L1874.3 1081C1828.7 1081 1737.3 1081 1645.8 1081C1554.3 1081 1462.7 1081 1371.2 1081C1279.7 1081 1188.3 1081 1097 1081C1005.7 1081 914.3 1081 823 1081C731.7 1081 640.3 1081 548.8 1081C457.3 1081 365.7 1081 274.2 1081C182.7 1081 91.3 1081 45.7 1081L0 1081Z" fill="#4facf7"></path><path d="M0 741L45.7 744.8C91.3 748.7 182.7 756.3 274.2 772C365.7 787.7 457.3 811.3 548.8 818C640.3 824.7 731.7 814.3 823 799.2C914.3 784 1005.7 764 1097 750.7C1188.3 737.3 1279.7 730.7 1371.2 747.7C1462.7 764.7 1554.3 805.3 1645.8 804.8C1737.3 804.3 1828.7 762.7 1874.3 741.8L1920 721L1920 1081L1874.3 1081C1828.7 1081 1737.3 1081 1645.8 1081C1554.3 1081 1462.7 1081 1371.2 1081C1279.7 1081 1188.3 1081 1097 1081C1005.7 1081 914.3 1081 823 1081C731.7 1081 640.3 1081 548.8 1081C457.3 1081 365.7 1081 274.2 1081C182.7 1081 91.3 1081 45.7 1081L0 1081Z" fill="#2b9dfc"></path><path d="M0 847L45.7 853.8C91.3 860.7 182.7 874.3 274.2 886.5C365.7 898.7 457.3 909.3 548.8 901.8C640.3 894.3 731.7 868.7 823 851C914.3 833.3 1005.7 823.7 1097 824C1188.3 824.3 1279.7 834.7 1371.2 852.3C1462.7 870 1554.3 895 1645.8 900.8C1737.3 906.7 1828.7 893.3 1874.3 886.7L1920 880L1920 1081L1874.3 1081C1828.7 1081 1737.3 1081 1645.8 1081C1554.3 1081 1462.7 1081 1371.2 1081C1279.7 1081 1188.3 1081 1097 1081C1005.7 1081 914.3 1081 823 1081C731.7 1081 640.3 1081 548.8 1081C457.3 1081 365.7 1081 274.2 1081C182.7 1081 91.3 1081 45.7 1081L0 1081Z" fill="#008cff"></path><path d="M0 866L45.7 868.5C91.3 871 182.7 876 274.2 890.7C365.7 905.3 457.3 929.7 548.8 930.5C640.3 931.3 731.7 908.7 823 898.2C914.3 887.7 1005.7 889.3 1097 894.5C1188.3 899.7 1279.7 908.3 1371.2 905.2C1462.7 902 1554.3 887 1645.8 894.7C1737.3 902.3 1828.7 932.7 1874.3 947.8L1920 963L1920 1081L1874.3 1081C1828.7 1081 1737.3 1081 1645.8 1081C1554.3 1081 1462.7 1081 1371.2 1081C1279.7 1081 1188.3 1081 1097 1081C1005.7 1081 914.3 1081 823 1081C731.7 1081 640.3 1081 548.8 1081C457.3 1081 365.7 1081 274.2 1081C182.7 1081 91.3 1081 45.7 1081L0 1081Z" fill="#007aff"></path><path d="M0 1013L45.7 1007.8C91.3 1002.7 182.7 992.3 274.2 995C365.7 997.7 457.3 1013.3 548.8 1011C640.3 1008.7 731.7 988.3 823 977.5C914.3 966.7 1005.7 965.3 1097 969.7C1188.3 974 1279.7 984 1371.2 985.8C1462.7 987.7 1554.3 981.3 1645.8 976.3C1737.3 971.3 1828.7 967.7 1874.3 965.8L1920 964L1920 1081L1874.3 1081C1828.7 1081 1737.3 1081 1645.8 1081C1554.3 1081 1462.7 1081 1371.2 1081C1279.7 1081 1188.3 1081 1097 1081C1005.7 1081 914.3 1081 823 1081C731.7 1081 640.3 1081 548.8 1081C457.3 1081 365.7 1081 274.2 1081C182.7 1081 91.3 1081 45.7 1081L0 1081Z" fill="#0066ff"></path></svg>